# xmcd
# Track frame offsets:
# 150
# 8108
# 20573
# 31840
# 42038
# 55280
# 66283
# 78455
# 87698
# 99720
# 112708
# 125410
# 137880
# 151033
# 164010
# 175823
# 186173
# 198040
# 208180
# 222125
# 234638
# 245318
# 257615
# 267525
# 281575
# 292808
#
# Disc length: 4082 seconds
# Revision: 0
# Processed by: cddbd v1.5.2PL0 Copyright (c) Steve Scherf et al.
# Submitted via: VisiTrax 2.10.3.257 - For more info visit www.synapsa.com
#
DISCID=700ff01a
DTITLE=Various Artist - From Ripley to Chicago
DYEAR=1993
DGENRE=Blues
TTITLE0=Chuck Berry - Let it Rock
TTITLE1=Ernie K Doe - A Certain Girl
TTITLE2=Don and Rob - Good Morning little Schoolgirl
TTITLE3=Billy Boy Arnold - I Ain't Got You
TTITLE4=Chuck Berry - Too Much Monkey Business
TTITLE5=Bo Diddley - Here 'Tis
TTITLE6=Robert Johnson - Crossroads
TTITLE7=Memphis Slim - Steppin Out
TTITLE8=Otis Rush - All Your Love
TTITLE9=Robert Johnson - Ramblin On My Mind
TTITLE10=Howlin Wolf - Spoonful
TTITLE11=Little Walter - Key To The Highway
TTITLE12=Little Walter - Mean Old World
TTITLE13=Howlin Wolf - Evil
TTITLE14=Arthur Crudup - Mean Old Frisco
TTITLE15=Elmore James - I Can't Hold Out
TTITLE16=Robert Johnson - Steady Rollin Man
TTITLE17=Jimmy Reed - Ain't That Lovin' You Baby
TTITLE18=Elmore James - It Hurts Me Too
TTITLE19=Elmore James - The Sky Is Crying
TTITLE20=Chuck Berry - Driftin Blues
TTITLE21=Otis Rush - Double trouble
TTITLE22=Chuck Berry - Worried Life Blues
TTITLE23=Bo Diddley - Before You Accuse Me
TTITLE24=Buddy Guy - Watch Yourself
TTITLE25=Muddy Waters - Rollin' and Tumblin (Part 1)
EXTD=
EXTT0=
EXTT1=
EXTT2=
EXTT3=
EXTT4=
EXTT5=
EXTT6=
EXTT7=
EXTT8=
EXTT9=
EXTT10=
EXTT11=
EXTT12=
EXTT13=
EXTT14=
EXTT15=
EXTT16=
EXTT17=
EXTT18=
EXTT19=
EXTT20=
EXTT21=
EXTT22=
EXTT23=
EXTT24=
EXTT25=
PLAYORDER=
